<?xml version="1.0" encoding="utf-8"?>
<svg xmlns="http://www.w3.org/2000/svg"
	xmlns:xlink="http://www.w3.org/1999/xlink"
	width="48px" height="49px" viewBox="0 0 48 49">
<path fillRule="evenodd" d="M 39.58 24C 39.32 24.39 38.7 25.04 37.45 25.04 36.56 25.04 35.25 24.66 34.2 24.2 34.42 26.72 33.92 29.6 32.62 32.55 33.09 33.5 33.29 34.55 33.14 35.63 32.65 39.01 28.85 40.86 24.61 40.86 20.37 40.86 16.59 39.01 16.13 35.63 16.01 34.72 16.14 33.83 16.46 33.01 15.02 29.93 14.45 26.92 14.68 24.28 13.66 24.71 12.45 25.04 11.61 25.04 10.36 25.04 9.74 24.39 9.48 24 9.06 23.35 9 22.54 9.32 21.78 10.13 19.87 12.91 19.04 14.07 18.77 14.07 18.77 14.17 18.75 14.17 18.75 12.77 15.85 13.45 11.15 13.97 9.56 13.97 9.56 17.03 9.81 17.03 9.81 17.08 10.81 17.79 12.69 20.46 14.82 20.46 14.82 22.05 15.91 22.05 15.91 22.8 15.77 23.59 15.68 24.45 15.68 25.26 15.68 26.02 15.76 26.73 15.89 26.73 15.89 28.43 14.73 28.43 14.73 31.1 12.6 31.81 10.72 31.86 9.72 31.86 9.72 34.92 9.46 34.92 9.46 35.45 11.06 36.13 15.81 34.7 18.7 34.7 18.7 34.99 18.77 34.99 18.77 36.15 19.04 38.93 19.87 39.74 21.78 40.06 22.54 40 23.35 39.58 24ZM 14.51 20.72C 14.51 20.72 11.65 21.38 11.15 22.57 10.64 23.75 14.3 22.43 14.98 21.87 14.66 21.4 14.63 21.28 14.51 20.72ZM 17.81 20.79C 16.05 23.54 16.23 27.79 18.27 32.16 18.27 32.16 18.64 32.94 18.64 32.94 18.64 32.94 18.32 33.74 18.32 33.74 18.11 34.28 18.04 34.82 18.11 35.36 18.44 37.77 21.71 38.86 24.61 38.86 27.52 38.86 30.81 37.76 31.16 35.34 31.25 34.7 31.14 34.06 30.83 33.44 30.83 33.44 30.41 32.6 30.41 32.6 30.41 32.6 30.79 31.74 30.79 31.74 32.67 27.49 32.76 23.37 31.03 20.72 29.74 18.73 27.46 17.68 24.45 17.68 21.4 17.68 19.1 18.75 17.81 20.79ZM 37.9 22.57C 37.4 21.38 34.54 20.72 34.54 20.72 34.42 21.28 34.39 21.4 34.06 21.87 34.75 22.43 38.4 23.75 37.9 22.57ZM 19.33 16.47C 19.33 16.47 15.73 13.99 15.59 11.45 15.19 13.63 15.01 17.07 16.3 18.44 16.94 18.11 17.96 17.03 19.33 16.47ZM 29.56 16.37C 29.56 16.37 33.16 13.9 33.3 11.36 33.7 13.53 33.88 16.97 32.59 18.34 31.95 18.02 30.93 16.94 29.56 16.37ZM 24.18 0.8C 37.27 0.8 47.88 11.41 47.88 24.5 47.88 37.59 37.27 48.2 24.18 48.2 11.09 48.2 0.48 37.59 0.48 24.5 0.48 11.41 11.09 0.8 24.18 0.8ZM 24.18 46.2C 12.22 46.2 2.48 36.47 2.48 24.5 2.48 12.53 12.22 2.8 24.18 2.8 36.15 2.8 45.88 12.53 45.88 24.5 45.88 36.47 36.15 46.2 24.18 46.2Z" fill="rgb(49,49,49)"/></svg>