<?xml version="1.0" encoding="utf-8"?>
<svg xmlns="http://www.w3.org/2000/svg"
	xmlns:xlink="http://www.w3.org/1999/xlink"
	width="38px" height="38px" viewBox="0 0 38 38">
<path fillRule="evenodd" d="M 18.93 0.24C 29.21 0.24 37.54 8.57 37.54 18.86 37.54 29.14 29.21 37.48 18.93 37.48 8.64 37.48 0.31 29.14 0.31 18.86 0.31 8.57 8.64 0.24 18.93 0.24ZM 18.86 3.23C 27.53 3.23 34.56 10.25 34.56 18.92 34.56 27.59 27.53 34.61 18.86 34.61 10.2 34.61 3.17 27.59 3.17 18.92 3.17 10.25 10.2 3.23 18.86 3.23Z" fill="rgb(255,255,255)" opacity="0.50"/><path fillRule="evenodd" d="M 18.86 34.61C 10.2 34.61 3.17 27.59 3.17 18.92 3.17 10.25 10.2 3.23 18.86 3.23 27.53 3.23 34.56 10.25 34.56 18.92 34.56 27.59 27.53 34.61 18.86 34.61ZM 26.88 12.78C 26.88 11.82 26.1 11.04 25.14 11.04 25.14 11.04 12.81 11.04 12.81 11.04 11.85 11.04 11.06 11.82 11.06 12.78 11.06 12.78 11.06 25.09 11.06 25.09 11.06 26.06 11.84 26.84 12.81 26.84 12.81 26.84 25.14 26.84 25.14 26.84 26.1 26.84 26.88 26.06 26.88 25.09 26.88 25.09 26.88 12.78 26.88 12.78ZM 24.56 15.9C 24.56 15.9 22.7 15.9 22.7 15.9 22.36 15.9 22.08 15.63 22.08 15.29 22.08 15.29 22.08 13.43 22.08 13.43 22.08 13.09 22.36 12.82 22.7 12.82 22.7 12.82 24.56 12.82 24.56 12.82 24.9 12.82 25.17 13.09 25.17 13.43 25.17 13.43 25.17 15.29 25.17 15.29 25.17 15.63 24.9 15.9 24.56 15.9ZM 19 21.81C 17.43 21.81 16.16 20.54 16.16 18.97 16.16 17.4 17.43 16.13 19 16.13 20.57 16.13 22.06 17.28 22.06 18.97 22.06 20.66 20.57 21.81 19 21.81ZM 19 23.9C 21.71 23.9 23.92 21.69 23.92 18.97 23.92 18.55 23.86 18.13 23.76 17.74 24.64 17.74 25.14 17.74 25.14 17.74 25.14 17.74 25.14 24.52 25.14 24.52 25.14 24.86 24.87 25.13 24.53 25.13 24.53 25.13 13.46 25.13 13.46 25.13 13.13 25.13 12.85 24.86 12.85 24.52 12.85 24.52 12.85 17.74 12.85 17.74 12.85 17.74 13.13 17.74 14.23 17.74 14.13 18.13 14.08 18.55 14.08 18.97 14.08 21.69 16.28 23.9 19 23.9Z" fill="rgb(255,255,255)" opacity="0.80"/></svg>