<?xml version="1.0" encoding="utf-8"?>
<svg xmlns="http://www.w3.org/2000/svg"
	xmlns:xlink="http://www.w3.org/1999/xlink"
	width="38px" height="38px" viewBox="0 0 38 38">
<path fillRule="evenodd" d="M 18.93 0.24C 29.21 0.24 37.54 8.57 37.54 18.86 37.54 29.14 29.21 37.48 18.93 37.48 8.64 37.48 0.31 29.14 0.31 18.86 0.31 8.57 8.64 0.24 18.93 0.24ZM 18.86 3.23C 27.53 3.23 34.56 10.25 34.56 18.92 34.56 27.59 27.53 34.61 18.86 34.61 10.2 34.61 3.17 27.59 3.17 18.92 3.17 10.25 10.2 3.23 18.86 3.23Z" fill="rgb(255,255,255)" opacity="0.50"/><path fillRule="evenodd" d="M 18.86 34.61C 10.2 34.61 3.17 27.59 3.17 18.92 3.17 10.25 10.2 3.23 18.86 3.23 27.53 3.23 34.56 10.25 34.56 18.92 34.56 27.59 27.53 34.61 18.86 34.61ZM 24.07 19.28C 23.57 18.73 22.9 18.37 22.06 18.19 22.06 18.19 22.06 18.12 22.06 18.12 22.64 17.88 23.1 17.5 23.43 16.98 23.76 16.46 23.93 15.87 23.93 15.21 23.93 14.64 23.81 14.13 23.57 13.69 23.33 13.25 22.96 12.9 22.48 12.64 22.03 12.4 21.54 12.24 21.03 12.16 20.52 12.09 19.76 12.05 18.76 12.05 18.76 12.05 13.96 12.05 13.96 12.05 13.96 12.05 13.96 25.64 13.96 25.64 13.96 25.64 19.4 25.64 19.4 25.64 20.34 25.64 21.12 25.56 21.73 25.39 22.35 25.22 22.91 24.93 23.42 24.53 23.85 24.19 24.19 23.77 24.45 23.26 24.71 22.75 24.83 22.16 24.83 21.48 24.83 20.56 24.58 19.82 24.07 19.28ZM 20.42 22.89C 20.07 23.04 19.72 23.12 19.38 23.13 19.04 23.14 18.43 23.15 17.54 23.15 17.54 23.15 17.35 23.15 17.35 23.15 17.35 23.15 17.35 19.75 17.35 19.75 17.35 19.75 17.98 19.75 17.98 19.75 18.59 19.75 19.08 19.75 19.44 19.76 19.8 19.77 20.09 19.81 20.29 19.89 20.63 20.01 20.89 20.19 21.06 20.43 21.23 20.67 21.32 21 21.32 21.42 21.32 21.74 21.25 22.04 21.1 22.3 20.96 22.56 20.73 22.75 20.42 22.89ZM 19.74 17.21C 19.49 17.32 19.25 17.39 19.01 17.4 18.78 17.41 18.37 17.42 17.78 17.42 17.78 17.42 17.35 17.42 17.35 17.42 17.35 17.42 17.35 14.54 17.35 14.54 17.35 14.54 17.59 14.54 17.59 14.54 18.2 14.54 18.66 14.55 18.97 14.55 19.28 14.56 19.54 14.62 19.76 14.72 20 14.82 20.18 14.99 20.29 15.22 20.4 15.45 20.46 15.67 20.46 15.89 20.46 16.19 20.41 16.45 20.3 16.68 20.2 16.9 20.01 17.08 19.74 17.21Z" fill="rgb(255,255,255)" opacity="0.80"/></svg>