<?xml version="1.0" encoding="utf-8"?>
<svg xmlns="http://www.w3.org/2000/svg"
	xmlns:xlink="http://www.w3.org/1999/xlink"
	width="38px" height="38px" viewBox="0 0 38 38">
<path fillRule="evenodd" d="M 18.93 0.24C 29.21 0.24 37.54 8.57 37.54 18.86 37.54 29.14 29.21 37.48 18.93 37.48 8.64 37.48 0.31 29.14 0.31 18.86 0.31 8.57 8.64 0.24 18.93 0.24ZM 18.86 3.23C 27.53 3.23 34.56 10.25 34.56 18.92 34.56 27.59 27.53 34.61 18.86 34.61 10.2 34.61 3.17 27.59 3.17 18.92 3.17 10.25 10.2 3.23 18.86 3.23Z" fill="rgb(255,255,255)" opacity="0.50"/><path fillRule="evenodd" d="M 18.86 34.61C 10.2 34.61 3.17 27.59 3.17 18.92 3.17 10.25 10.2 3.23 18.86 3.23 27.53 3.23 34.56 10.25 34.56 18.92 34.56 27.59 27.53 34.61 18.86 34.61ZM 22.77 9.3C 22.77 9.3 19.98 9.3 19.98 9.3 16.69 9.3 15.9 10.84 15.9 13.64 15.9 13.64 15.9 15.84 15.9 15.84 15.9 15.84 14.01 15.84 14.01 15.84 14.01 15.84 14.01 18.93 14.01 18.93 14.01 18.93 15.9 18.93 15.9 18.93 15.9 18.93 15.9 28.22 15.9 28.22 15.9 28.22 19.64 28.22 19.64 28.22 19.64 28.22 19.64 18.93 19.64 18.93 19.64 18.93 22.38 18.93 22.38 18.93 22.38 18.93 22.67 15.84 22.67 15.84 22.67 15.84 19.64 15.84 19.64 15.84 19.64 15.84 19.64 13.98 19.64 13.98 19.64 13.09 19.73 12.72 21.01 12.72 21.01 12.72 22.77 12.72 22.77 12.72 22.77 12.72 22.77 9.3 22.77 9.3Z" fill="rgb(255,255,255)" opacity="0.80"/></svg>