<?xml version="1.0" encoding="utf-8"?>
<svg xmlns="http://www.w3.org/2000/svg"
	xmlns:xlink="http://www.w3.org/1999/xlink"
	width="39px" height="38px" viewBox="0 0 39 38">
<path fillRule="evenodd" d="M 19.43 0.24C 29.71 0.24 38.04 8.57 38.04 18.86 38.04 29.14 29.71 37.48 19.43 37.48 9.14 37.48 0.81 29.14 0.81 18.86 0.81 8.57 9.14 0.24 19.43 0.24ZM 19.43 3.17C 28.09 3.17 35.12 10.19 35.12 18.86 35.12 27.52 28.09 34.55 19.43 34.55 10.76 34.55 3.74 27.52 3.74 18.86 3.74 10.19 10.76 3.17 19.43 3.17Z" fill="rgb(255,255,255)" opacity="0.50"/><path fillRule="evenodd" d="M 19.43 34.55C 10.76 34.55 3.74 27.52 3.74 18.86 3.74 10.19 10.76 3.17 19.43 3.17 28.09 3.17 35.12 10.19 35.12 18.86 35.12 27.52 28.09 34.55 19.43 34.55ZM 28.07 12.53C 27.37 12.95 26.59 13.25 25.76 13.42 25.1 12.71 24.15 12.27 23.1 12.27 21.09 12.27 19.46 13.9 19.46 15.91 19.46 16.2 19.49 16.47 19.55 16.74 16.53 16.59 13.84 15.14 12.05 12.93 11.73 13.47 11.55 14.1 11.55 14.77 11.55 16.03 12.2 17.14 13.17 17.8 12.58 17.78 12.02 17.61 11.52 17.34 11.52 17.36 11.52 17.37 11.52 17.39 11.52 19.15 12.78 20.62 14.45 20.96 14.14 21.04 13.82 21.09 13.49 21.09 13.25 21.09 13.02 21.06 12.8 21.02 13.26 22.47 14.61 23.52 16.2 23.55 14.96 24.53 13.39 25.11 11.68 25.11 11.39 25.11 11.1 25.09 10.81 25.06 12.42 26.09 14.34 26.7 16.39 26.7 23.09 26.7 26.76 21.15 26.76 16.33 26.76 16.17 26.75 16.02 26.75 15.86 27.46 15.35 28.08 14.71 28.56 13.98 27.91 14.27 27.21 14.46 26.47 14.55 27.22 14.1 27.8 13.38 28.07 12.53Z" fill="rgb(255,255,255)" opacity="0.80"/></svg>