<?xml version="1.0" encoding="utf-8"?>
<svg xmlns="http://www.w3.org/2000/svg"
	xmlns:xlink="http://www.w3.org/1999/xlink"
	width="136px" height="14px" viewBox="0 0 136 14">
<path fillRule="evenodd" d="M 134.22 8.54C 134.22 8.54 134.22 8.54 134.22 8.54 134.22 8.54 128.77 13.98 128.77 13.98 128.77 13.98 127.36 12.57 127.36 12.57 127.36 12.57 132.8 7.12 132.8 7.12 132.8 7.12 127.36 1.68 127.36 1.68 127.36 1.68 128.78 0.27 128.78 0.27 128.78 0.27 135.64 7.13 135.64 7.13 135.64 7.13 134.22 8.54 134.22 8.54Z" fill="rgb(255,255,255)"/><path fillRule="evenodd" d="M 8.61 1.69C 8.61 1.69 3.16 7.14 3.16 7.14 3.16 7.14 8.6 12.58 8.6 12.58 8.6 12.58 7.19 13.99 7.19 13.99 7.19 13.99 0.33 7.13 0.33 7.13 0.33 7.13 1.75 5.72 1.75 5.72 1.75 5.72 1.75 5.72 1.75 5.72 1.75 5.72 7.2 0.28 7.2 0.28 7.2 0.28 8.61 1.69 8.61 1.69Z" fill="rgb(255,255,255)" opacity="0.20"/></svg>