<?xml version="1.0" encoding="utf-8"?>
<svg xmlns="http://www.w3.org/2000/svg"
	xmlns:xlink="http://www.w3.org/1999/xlink"
	width="180px" height="32px" viewBox="0 0 180 32">
<path fillRule="evenodd" d="M 163.86 31.61C 155.2 31.61 148.17 24.59 148.17 15.92 148.17 7.25 155.2 0.23 163.86 0.23 172.53 0.23 179.56 7.25 179.56 15.92 179.56 24.59 172.53 31.61 163.86 31.61ZM 169.07 16.28C 168.57 15.73 167.9 15.37 167.06 15.19 167.06 15.19 167.06 15.12 167.06 15.12 167.64 14.88 168.1 14.5 168.43 13.98 168.76 13.46 168.93 12.87 168.93 12.21 168.93 11.64 168.81 11.13 168.57 10.69 168.33 10.25 167.96 9.9 167.48 9.64 167.03 9.4 166.54 9.24 166.03 9.16 165.52 9.09 164.76 9.05 163.76 9.05 163.76 9.05 158.96 9.05 158.96 9.05 158.96 9.05 158.96 22.64 158.96 22.64 158.96 22.64 164.4 22.64 164.4 22.64 165.34 22.64 166.12 22.56 166.73 22.39 167.35 22.22 167.91 21.93 168.42 21.53 168.85 21.19 169.19 20.77 169.45 20.26 169.71 19.75 169.83 19.16 169.83 18.48 169.83 17.56 169.58 16.82 169.07 16.28ZM 165.42 19.89C 165.07 20.04 164.72 20.12 164.38 20.13 164.04 20.14 163.43 20.15 162.54 20.15 162.54 20.15 162.35 20.15 162.35 20.15 162.35 20.15 162.35 16.75 162.35 16.75 162.35 16.75 162.98 16.75 162.98 16.75 163.59 16.75 164.08 16.75 164.44 16.76 164.8 16.77 165.09 16.81 165.29 16.89 165.63 17.01 165.89 17.19 166.06 17.43 166.23 17.67 166.32 18 166.32 18.42 166.32 18.74 166.25 19.04 166.1 19.3 165.96 19.56 165.73 19.75 165.42 19.89ZM 164.74 14.21C 164.49 14.32 164.25 14.39 164.01 14.4 163.78 14.41 163.37 14.42 162.78 14.42 162.78 14.42 162.35 14.42 162.35 14.42 162.35 14.42 162.35 11.54 162.35 11.54 162.35 11.54 162.59 11.54 162.59 11.54 163.2 11.54 163.66 11.55 163.97 11.55 164.28 11.56 164.54 11.62 164.76 11.72 165 11.82 165.18 11.99 165.29 12.22 165.4 12.45 165.46 12.67 165.46 12.89 165.46 13.19 165.41 13.45 165.3 13.68 165.2 13.9 165.01 14.08 164.74 14.21Z" fill="rgb(255,255,255)" opacity="0.80"/><path fillRule="evenodd" d="M 114.86 31.61C 106.2 31.61 99.17 24.59 99.17 15.92 99.17 7.25 106.2 0.23 114.86 0.23 123.53 0.23 130.56 7.25 130.56 15.92 130.56 24.59 123.53 31.61 114.86 31.61ZM 118.77 6.3C 118.77 6.3 115.98 6.3 115.98 6.3 112.69 6.3 111.9 7.84 111.9 10.64 111.9 10.64 111.9 12.84 111.9 12.84 111.9 12.84 110.01 12.84 110.01 12.84 110.01 12.84 110.01 15.93 110.01 15.93 110.01 15.93 111.9 15.93 111.9 15.93 111.9 15.93 111.9 25.22 111.9 25.22 111.9 25.22 115.64 25.22 115.64 25.22 115.64 25.22 115.64 15.93 115.64 15.93 115.64 15.93 118.38 15.93 118.38 15.93 118.38 15.93 118.67 12.84 118.67 12.84 118.67 12.84 115.64 12.84 115.64 12.84 115.64 12.84 115.64 10.98 115.64 10.98 115.64 10.09 115.73 9.72 117.01 9.72 117.01 9.72 118.77 9.72 118.77 9.72 118.77 9.72 118.77 6.3 118.77 6.3Z" fill="rgb(255,255,255)" opacity="0.80"/><path fillRule="evenodd" d="M 65.86 31.61C 57.2 31.61 50.17 24.59 50.17 15.92 50.17 7.25 57.2 0.23 65.86 0.23 74.53 0.23 81.56 7.25 81.56 15.92 81.56 24.59 74.53 31.61 65.86 31.61ZM 73.88 9.78C 73.88 8.82 73.1 8.04 72.14 8.04 72.14 8.04 59.81 8.04 59.81 8.04 58.85 8.04 58.06 8.82 58.06 9.78 58.06 9.78 58.06 22.09 58.06 22.09 58.06 23.06 58.84 23.84 59.81 23.84 59.81 23.84 72.14 23.84 72.14 23.84 73.1 23.84 73.88 23.06 73.88 22.09 73.88 22.09 73.88 9.78 73.88 9.78ZM 71.56 12.9C 71.56 12.9 69.7 12.9 69.7 12.9 69.36 12.9 69.08 12.63 69.08 12.29 69.08 12.29 69.08 10.43 69.08 10.43 69.08 10.09 69.36 9.82 69.7 9.82 69.7 9.82 71.56 9.82 71.56 9.82 71.9 9.82 72.17 10.09 72.17 10.43 72.17 10.43 72.17 12.29 72.17 12.29 72.17 12.63 71.9 12.9 71.56 12.9ZM 66 18.81C 64.43 18.81 63.16 17.54 63.16 15.97 63.16 14.4 64.43 13.13 66 13.13 67.57 13.13 69.06 14.28 69.06 15.97 69.06 17.66 67.57 18.81 66 18.81ZM 66 20.9C 68.71 20.9 70.92 18.69 70.92 15.97 70.92 15.55 70.86 15.13 70.76 14.74 71.64 14.74 72.14 14.74 72.14 14.74 72.14 14.74 72.14 21.52 72.14 21.52 72.14 21.86 71.87 22.13 71.53 22.13 71.53 22.13 60.46 22.13 60.46 22.13 60.13 22.13 59.85 21.86 59.85 21.52 59.85 21.52 59.85 14.74 59.85 14.74 59.85 14.74 60.13 14.74 61.23 14.74 61.13 15.13 61.08 15.55 61.08 15.97 61.08 18.69 63.28 20.9 66 20.9Z" fill="rgb(255,255,255)" opacity="0.80"/><path fillRule="evenodd" d="M 16.43 31.55C 7.76 31.55 0.74 24.52 0.74 15.86 0.74 7.19 7.76 0.17 16.43 0.17 25.09 0.17 32.12 7.19 32.12 15.86 32.12 24.52 25.09 31.55 16.43 31.55ZM 25.07 9.53C 24.37 9.95 23.59 10.25 22.76 10.42 22.1 9.71 21.15 9.27 20.1 9.27 18.09 9.27 16.46 10.9 16.46 12.91 16.46 13.2 16.49 13.47 16.55 13.74 13.53 13.59 10.84 12.14 9.05 9.93 8.73 10.47 8.55 11.1 8.55 11.77 8.55 13.03 9.2 14.14 10.17 14.8 9.58 14.78 9.02 14.61 8.52 14.34 8.52 14.36 8.52 14.37 8.52 14.39 8.52 16.15 9.78 17.62 11.45 17.96 11.14 18.04 10.82 18.09 10.49 18.09 10.25 18.09 10.02 18.06 9.8 18.02 10.26 19.47 11.61 20.52 13.2 20.55 11.96 21.53 10.39 22.11 8.68 22.11 8.39 22.11 8.1 22.09 7.81 22.06 9.42 23.09 11.34 23.7 13.39 23.7 20.09 23.7 23.76 18.15 23.76 13.33 23.76 13.17 23.75 13.02 23.75 12.86 24.46 12.35 25.08 11.71 25.56 10.98 24.91 11.27 24.21 11.46 23.47 11.55 24.22 11.1 24.8 10.38 25.07 9.53Z" fill="rgb(255,255,255)" opacity="0.80"/></svg>